<svg width="15" height="15" viewBox="0 0 15 15" fill="none" xmlns="http://www.w3.org/2000/svg">
<path d="M14.1813 0.00442916L14.2596 0L14.3556 0.00590543L14.422 0.0177165L14.5128 0.0435532L14.5918 0.0775098L14.6656 0.119587L14.732 0.169045L14.7926 0.224409L14.831 0.267962L14.8915 0.353593L14.9299 0.424459C14.9643 0.498278 14.9865 0.576033 14.9963 0.657726L15 0.735974C15 0.791584 14.9941 0.845718 14.9823 0.898376L14.9564 0.989173L10.1346 14.3334C10.0432 14.5324 9.8966 14.701 9.71224 14.8191C9.52787 14.9373 9.31347 15.0001 9.09449 15C8.89731 15.0004 8.70337 14.9499 8.53148 14.8532C8.35959 14.7566 8.21559 14.6172 8.11343 14.4486L8.06545 14.3548L5.59104 9.40748L0.667323 6.94488C0.485139 6.86156 0.328024 6.73186 0.211692 6.56877C0.0953611 6.40567 0.0238907 6.21489 0.00442916 6.0155L0 5.90551C0 5.49213 0.222195 5.11417 0.620817 4.89419L0.724163 4.84252L14.0241 0.0398621L14.1024 0.0177165L14.1813 0.00442916Z" fill="#2D2D2D"/>
</svg>
