<svg width="56" height="55" viewBox="0 0 56 55" fill="none" xmlns="http://www.w3.org/2000/svg">
<path d="M2.05505 28.2639C2.05505 13.4979 14.131 1.52778 29.0275 1.52778C43.924 1.52778 56 13.4979 56 28.2639C56 43.0298 43.924 55 29.0275 55C14.131 55 2.05505 43.0298 2.05505 28.2639Z" fill="#404040"/>
<path d="M0 26.9907C0 12.0842 12.191 0 27.2294 0C42.2677 0 54.4587 12.0842 54.4587 26.9907C54.4587 41.8973 42.2677 53.9815 27.2294 53.9815C12.191 53.9815 0 41.8973 0 26.9907Z" fill="#FFCC66"/>
<path d="M36.6926 36.6422C36.9885 37.0985 36.8241 37.6852 36.1994 37.6852H32.3195C31.5303 37.6852 31.1357 37.3919 30.6754 36.7074L27.1243 31.46C26.8284 31.0689 26.7626 30.7104 26.7626 29.7978V27.1904C26.7626 26.6037 26.9599 26.2452 27.7161 26.2452H28.3738C29.9849 26.2452 31.4974 25.137 31.4974 23.6052C31.4974 21.9104 30.1822 20.8348 28.4724 20.8348H24.0993V36.74C24.0993 37.4896 23.7376 37.6852 23.1457 37.6852H19.8905C19.2987 37.6852 18.9699 37.4896 18.9699 36.74V17.217C18.9699 16.6304 19.1343 16.2719 19.8905 16.2719H28.1765C31.7605 16.2719 33.3388 16.9889 34.7197 18.3578C35.9363 19.5311 36.6268 21.3889 36.6268 23.4748C36.6268 26.897 34.095 29.2763 32.0564 29.9607L36.6926 36.6422Z" fill="#404040"/>
</svg>
