<svg width="304" height="66" viewBox="0 0 304 66" fill="none" xmlns="http://www.w3.org/2000/svg">
<path d="M286.222 0.594595H10.0741C4.8376 0.594595 0.592593 4.85394 0.592593 10.1081V48.1622C0.592593 53.4163 4.8376 57.6757 10.0741 57.6757H286.222C291.459 57.6757 295.704 53.4163 295.704 48.1622V10.1081C295.704 4.85394 291.459 0.594595 286.222 0.594595Z" fill="#FFCC66"/>
<path d="M286.815 1.18919H10.6667C5.43019 1.18919 1.18519 5.44853 1.18519 10.7027V48.7568C1.18519 54.0109 5.43019 58.2703 10.6667 58.2703H286.815C292.051 58.2703 296.296 54.0109 296.296 48.7568V10.7027C296.296 5.44853 292.051 1.18919 286.815 1.18919Z" fill="#FFCC66"/>
<path d="M287.407 1.78378H11.2593C6.02278 1.78378 1.77778 6.04313 1.77778 11.2973V49.3514C1.77778 54.6055 6.02278 58.8649 11.2593 58.8649H287.407C292.644 58.8649 296.889 54.6055 296.889 49.3514V11.2973C296.889 6.04313 292.644 1.78378 287.407 1.78378Z" fill="#FFCC66"/>
<path d="M288 2.37838H11.8519C6.61537 2.37838 2.37037 6.63772 2.37037 11.8919V49.9459C2.37037 55.2001 6.61537 59.4595 11.8519 59.4595H288C293.236 59.4595 297.481 55.2001 297.481 49.9459V11.8919C297.481 6.63772 293.236 2.37838 288 2.37838Z" fill="#FFCC66"/>
<path d="M288.593 2.97297H12.4444C7.20797 2.97297 2.96296 7.23232 2.96296 12.4865V50.5405C2.96296 55.7947 7.20797 60.0541 12.4444 60.0541H288.593C293.829 60.0541 298.074 55.7947 298.074 50.5405V12.4865C298.074 7.23232 293.829 2.97297 288.593 2.97297Z" fill="#FFCC66"/>
<path d="M289.185 3.56757H13.037C7.80056 3.56757 3.55556 7.82691 3.55556 13.0811V51.1351C3.55556 56.3893 7.80056 60.6486 13.037 60.6486H289.185C294.422 60.6486 298.667 56.3893 298.667 51.1351V13.0811C298.667 7.82691 294.422 3.56757 289.185 3.56757Z" fill="#FFCC66"/>
<path d="M289.778 4.16216H13.6296C8.39315 4.16216 4.14815 8.42151 4.14815 13.6757V51.7297C4.14815 56.9839 8.39315 61.2432 13.6296 61.2432H289.778C295.014 61.2432 299.259 56.9839 299.259 51.7297V13.6757C299.259 8.42151 295.014 4.16216 289.778 4.16216Z" fill="#FFCC66"/>
<path d="M290.37 4.75676H14.2222C8.98574 4.75676 4.74074 9.0161 4.74074 14.2703V52.3243C4.74074 57.5785 8.98574 61.8378 14.2222 61.8378H290.37C295.607 61.8378 299.852 57.5785 299.852 52.3243V14.2703C299.852 9.0161 295.607 4.75676 290.37 4.75676Z" fill="#FFCC66"/>
<path d="M290.963 5.35135H14.8148C9.57834 5.35135 5.33333 9.6107 5.33333 14.8649V52.9189C5.33333 58.1731 9.57834 62.4324 14.8148 62.4324H290.963C296.199 62.4324 300.444 58.1731 300.444 52.9189V14.8649C300.444 9.6107 296.199 5.35135 290.963 5.35135Z" fill="#FFCC66"/>
<path d="M291.556 5.94595H15.4074C10.1709 5.94595 5.92593 10.2053 5.92593 15.4595V53.5135C5.92593 58.7677 10.1709 63.027 15.4074 63.027H291.556C296.792 63.027 301.037 58.7677 301.037 53.5135V15.4595C301.037 10.2053 296.792 5.94595 291.556 5.94595Z" fill="#FFCC66"/>
<path d="M292.148 6.54054H16C10.7635 6.54054 6.51852 10.7999 6.51852 16.0541V54.1081C6.51852 59.3623 10.7635 63.6216 16 63.6216H292.148C297.385 63.6216 301.63 59.3623 301.63 54.1081V16.0541C301.63 10.7999 297.385 6.54054 292.148 6.54054Z" fill="#FFCC66"/>
<path d="M292.741 7.13514H16.5926C11.3561 7.13514 7.11111 11.3945 7.11111 16.6486V54.7027C7.11111 59.9569 11.3561 64.2162 16.5926 64.2162H292.741C297.977 64.2162 302.222 59.9569 302.222 54.7027V16.6486C302.222 11.3945 297.977 7.13514 292.741 7.13514Z" fill="#FFCC66"/>
<path d="M293.333 7.72973H17.1852C11.9487 7.72973 7.7037 11.9891 7.7037 17.2432V55.2973C7.7037 60.5515 11.9487 64.8108 17.1852 64.8108H293.333C298.57 64.8108 302.815 60.5515 302.815 55.2973V17.2432C302.815 11.9891 298.57 7.72973 293.333 7.72973Z" fill="#FFCC66"/>
<path d="M293.926 8.32432H17.7778C12.5413 8.32432 8.2963 12.5837 8.2963 17.8378V55.8919C8.2963 61.1461 12.5413 65.4054 17.7778 65.4054H293.926C299.162 65.4054 303.407 61.1461 303.407 55.8919V17.8378C303.407 12.5837 299.162 8.32432 293.926 8.32432Z" fill="#FFCC66"/>
<path d="M294.519 8.91892H18.3704C13.1339 8.91892 8.88889 13.1783 8.88889 18.4324V56.4865C8.88889 61.7407 13.1339 66 18.3704 66H294.519C299.755 66 304 61.7407 304 56.4865V18.4324C304 13.1783 299.755 8.91892 294.519 8.91892Z" fill="#FFCC66"/>
<path d="M288 2.37838H11.8519C6.61537 2.37838 2.37037 6.63772 2.37037 11.8919V49.9459C2.37037 55.2001 6.61537 59.4595 11.8519 59.4595H288C293.236 59.4595 297.481 55.2001 297.481 49.9459V11.8919C297.481 6.63772 293.236 2.37838 288 2.37838Z" fill="white"/>
<path d="M285.63 0H9.48148C4.245 0 0 4.25934 0 9.51351V47.5676C0 52.8217 4.245 57.0811 9.48148 57.0811H286.815C292.051 57.0811 295.111 54.0109 295.111 48.7568V9.51351C295.111 4.25934 290.866 0 285.63 0Z" fill="#404040"/>
<path d="M37.8667 42.9416L31.0637 33.0119C34.0622 31.9892 37.7719 28.4573 37.7719 23.3795L37.8667 42.9416Z" fill="#343C3E"/>
<path d="M36.5014 42.4398C36.9387 43.1224 36.6958 44 35.7725 44H30.0386C28.8723 44 28.2892 43.5612 27.6089 42.5373L22.3609 34.6875C21.9236 34.1024 21.8264 33.5661 21.8264 32.2009V28.3003C21.8264 27.4227 22.118 26.8864 23.2356 26.8864H24.2075C26.5885 26.8864 28.8238 25.2286 28.8238 22.9371C28.8238 20.4017 26.88 18.7928 24.3532 18.7928H17.8904V42.5861C17.8904 43.7075 17.3559 44 16.4812 44H11.6706C10.7959 44 10.31 43.7075 10.31 42.5861V13.3808C10.31 12.5031 10.5529 11.9668 11.6706 11.9668H23.9159C29.2125 11.9668 31.5449 13.0395 33.5858 15.0872C35.3838 16.8425 36.4042 19.6216 36.4042 22.7421C36.4042 27.8615 32.6626 31.4208 29.6498 32.4446L36.5014 42.4398Z" fill="white"/>
<path d="M67.7958 33.7123C67.7958 41.4159 60.5069 44.7314 54.7244 44.7314C48.9418 44.7314 41.7501 41.4159 41.7501 33.7123V22.2057C41.7501 14.5022 48.9418 11.1867 54.7244 11.1867C60.5069 11.1867 67.7958 14.5022 67.7958 22.2057V33.7123ZM60.1667 22.8883C60.1667 19.7679 57.9315 17.9639 54.7244 17.9639C51.5658 17.9639 49.3306 19.7679 49.3306 22.8883V33.0297C49.3306 36.1502 51.5658 37.9542 54.7244 37.9542C57.9315 37.9542 60.1667 36.1502 60.1667 33.0297V22.8883Z" fill="white"/>
<path d="M97.9004 11.9181C98.7751 11.9181 99.3096 12.2106 99.3096 13.332V34.1999C99.3096 41.8547 92.2151 44.7314 86.4325 44.7314C80.65 44.7314 73.6041 41.8547 73.6041 34.1999V13.332C73.6041 12.2106 74.1386 11.9181 75.0133 11.9181H79.824C80.6986 11.9181 81.2331 12.2106 81.2331 13.332V33.1272C81.2331 36.1989 83.2254 37.9542 86.4325 37.9542C89.6397 37.9542 91.6805 36.1989 91.6805 33.1272V13.332C91.6805 12.2106 92.2151 11.9181 93.0897 11.9181H97.9004Z" fill="white"/>
<path d="M127.743 11.9181C128.86 11.9181 129.152 12.4544 129.152 13.332V17.3788C129.152 18.2564 128.86 18.7928 127.743 18.7928H120.308V42.5861C120.308 43.7075 119.774 44 118.899 44H114.088C113.214 44 112.679 43.7075 112.679 42.5861V18.7928H105.196C104.078 18.7928 103.787 18.2564 103.787 17.3788V13.332C103.787 12.4544 104.078 11.9181 105.196 11.9181H127.743Z" fill="white"/>
<path d="M157.2 37.1741C158.318 37.1741 158.61 37.7104 158.61 38.588V42.5861C158.61 43.4637 158.318 44 157.2 44H135.431C134.313 44 134.022 43.4637 134.022 42.5861V13.332C134.022 12.4544 134.313 11.9181 135.431 11.9181H156.374C157.492 11.9181 157.784 12.4544 157.784 13.332V17.3788C157.784 18.2564 157.492 18.7928 156.374 18.7928H141.699V24.1072H154.722C155.84 24.1072 156.131 24.6436 156.131 25.5212V29.3242C156.131 30.2018 155.84 30.7382 154.722 30.7382H141.699V37.1741H157.2Z" fill="white"/>
<path d="M202.632 11.9181C203.507 11.9181 203.653 12.7469 203.458 13.332L194.517 42.9761C194.517 42.9761 194.274 44 193.205 44H189.124C187.86 44 187.569 42.8786 187.569 42.8786L182.709 27.3252L177.85 42.8786C177.85 42.8786 177.558 44 176.295 44H172.019C170.95 44 170.707 42.9761 170.707 42.9761L161.717 13.332C161.572 12.7469 161.717 11.9181 162.592 11.9181H167.937C169.395 11.9181 169.686 12.8932 169.881 13.4783L174.691 30.0556L179.356 13.4783C179.551 12.7957 179.891 11.9181 181.009 11.9181H184.41C185.479 11.9181 185.819 12.7957 186.014 13.4783L190.727 30.0556L195.538 13.4783C195.684 12.8932 196.024 11.9181 197.481 11.9181H202.632Z" fill="white"/>
<path d="M222.042 37.3203C223.16 37.3203 223.451 37.8566 223.451 38.7343V42.5861C223.451 43.4637 223.16 44 222.042 44H208.29C207.173 44 206.881 43.4637 206.881 42.5861V38.7343C206.881 37.8566 207.173 37.3203 208.29 37.3203H211.352V18.6952H208.387C207.27 18.6952 206.978 18.1589 206.978 17.2813V13.332C206.978 12.4544 207.27 11.9181 208.387 11.9181H221.896C223.014 11.9181 223.305 12.4544 223.305 13.332V17.2813C223.305 18.1589 223.014 18.6952 221.896 18.6952H218.981V37.3203H222.042Z" fill="white"/>
<path d="M244.8 25.3749C248.298 26.4476 253.449 27.8615 253.449 34.4924C253.449 41.4159 248.007 44.7314 240.523 44.7314C234.449 44.7314 227.452 41.2209 227.452 34.3949C227.452 33.2735 227.744 33.0297 228.861 33.0297H233.575C234.692 33.0297 235.227 33.176 235.324 34.3949C235.373 35.0288 235.616 35.6626 236.247 36.3939C237.219 37.5641 239.211 38.0029 241.009 38.0029C243.633 38.0029 245.771 37.4178 245.771 34.6875C245.771 31.9571 241.447 31.9083 237.316 30.5919C232.408 29.0317 227.889 27.0814 227.889 20.8893C227.889 14.5509 233.623 11.4305 239.697 11.1867C245.869 11.1867 252.623 14.0146 252.623 20.4505C252.623 21.6206 252.331 21.8157 251.214 21.8157H246.452C245.528 21.8157 245.383 21.1331 245.14 20.4992C244.945 20.0117 244.702 19.6216 244.119 19.0365C243.196 18.1589 241.447 17.7201 239.989 17.7201C238.385 17.7201 235.713 18.3539 235.713 20.548C235.713 23.5222 242.856 24.5948 244.8 25.3749Z" fill="white"/>
<path d="M282.336 37.1741C283.453 37.1741 283.745 37.7104 283.745 38.588V42.5861C283.745 43.4637 283.453 44 282.336 44H260.566C259.449 44 259.157 43.4637 259.157 42.5861V13.332C259.157 12.4544 259.449 11.9181 260.566 11.9181H281.51C282.627 11.9181 282.919 12.4544 282.919 13.332V17.3788C282.919 18.2564 282.627 18.7928 281.51 18.7928H266.835V24.1072H279.858C280.975 24.1072 281.267 24.6436 281.267 25.5212V29.3242C281.267 30.2018 280.975 30.7382 279.858 30.7382H266.835V37.1741H282.336Z" fill="white"/>
</svg>
