<svg width="812" height="175" viewBox="0 0 812 175" fill="none" xmlns="http://www.w3.org/2000/svg">
<path d="M764.515 1.57658H26.9084C12.9215 1.57658 1.58285 12.8703 1.58285 26.8018V127.703C1.58285 141.634 12.9215 152.928 26.9084 152.928H764.515C778.502 152.928 789.84 141.634 789.84 127.703V26.8018C789.84 12.8703 778.502 1.57658 764.515 1.57658Z" fill="#FFCC66"/>
<path d="M766.098 3.15315H28.4912C14.5043 3.15315 3.16569 14.4469 3.16569 28.3784V129.279C3.16569 143.211 14.5043 154.505 28.4912 154.505H766.098C780.084 154.505 791.423 143.211 791.423 129.279V28.3784C791.423 14.4469 780.084 3.15315 766.098 3.15315Z" fill="#FFCC66"/>
<path d="M767.68 4.72973H30.0741C16.0872 4.72973 4.74854 16.0234 4.74854 29.955V130.856C4.74854 144.787 16.0872 156.081 30.0741 156.081H767.68C781.667 156.081 793.006 144.787 793.006 130.856V29.955C793.006 16.0234 781.667 4.72973 767.68 4.72973Z" fill="#FFCC66"/>
<path d="M769.263 6.30631H31.6569C17.67 6.30631 6.33138 17.6 6.33138 31.5315V132.432C6.33138 146.364 17.67 157.658 31.6569 157.658H769.263C783.25 157.658 794.589 146.364 794.589 132.432V31.5315C794.589 17.6 783.25 6.30631 769.263 6.30631Z" fill="#FFCC66"/>
<path d="M770.846 7.88288H33.2398C19.2529 7.88288 7.91423 19.1766 7.91423 33.1081V134.009C7.91423 147.941 19.2529 159.234 33.2398 159.234H770.846C784.833 159.234 796.172 147.941 796.172 134.009V33.1081C796.172 19.1766 784.833 7.88288 770.846 7.88288Z" fill="#FFCC66"/>
<path d="M772.429 9.45946H34.8226C20.8357 9.45946 9.49708 20.7532 9.49708 34.6847V135.586C9.49708 149.517 20.8357 160.811 34.8226 160.811H772.429C786.416 160.811 797.754 149.517 797.754 135.586V34.6847C797.754 20.7532 786.416 9.45946 772.429 9.45946Z" fill="#FFCC66"/>
<path d="M774.012 11.036H36.4055C22.4185 11.036 11.0799 22.3298 11.0799 36.2613V137.162C11.0799 151.094 22.4185 162.387 36.4055 162.387H774.012C787.999 162.387 799.337 151.094 799.337 137.162V36.2613C799.337 22.3298 787.999 11.036 774.012 11.036Z" fill="#FFCC66"/>
<path d="M775.595 12.6126H37.9883C24.0014 12.6126 12.6628 23.9063 12.6628 37.8378V138.739C12.6628 152.67 24.0014 163.964 37.9883 163.964H775.595C789.581 163.964 800.92 152.67 800.92 138.739V37.8378C800.92 23.9063 789.581 12.6126 775.595 12.6126Z" fill="#FFCC66"/>
<path d="M777.177 14.1892H39.5712C25.5842 14.1892 14.2456 25.4829 14.2456 39.4144V140.315C14.2456 154.247 25.5842 165.541 39.5712 165.541H777.177C791.164 165.541 802.503 154.247 802.503 140.315V39.4144C802.503 25.4829 791.164 14.1892 777.177 14.1892Z" fill="#FFCC66"/>
<path d="M778.76 15.7658H41.154C27.1671 15.7658 15.8285 27.0595 15.8285 40.991V141.892C15.8285 155.823 27.1671 167.117 41.154 167.117H778.76C792.747 167.117 804.086 155.823 804.086 141.892V40.991C804.086 27.0595 792.747 15.7658 778.76 15.7658Z" fill="#FFCC66"/>
<path d="M780.343 17.3423H42.7368C28.7499 17.3423 17.4113 28.6361 17.4113 42.5676V143.468C17.4113 157.4 28.7499 168.694 42.7368 168.694H780.343C794.33 168.694 805.669 157.4 805.669 143.468V42.5676C805.669 28.6361 794.33 17.3423 780.343 17.3423Z" fill="#FFCC66"/>
<path d="M781.926 18.9189H44.3197C30.3328 18.9189 18.9942 30.2126 18.9942 44.1441V145.045C18.9942 158.977 30.3328 170.27 44.3197 170.27H781.926C795.913 170.27 807.251 158.977 807.251 145.045V44.1441C807.251 30.2126 795.913 18.9189 781.926 18.9189Z" fill="#FFCC66"/>
<path d="M783.509 20.4955H45.9025C31.9156 20.4955 20.577 31.7892 20.577 45.7207V146.622C20.577 160.553 31.9156 171.847 45.9025 171.847H783.509C797.496 171.847 808.834 160.553 808.834 146.622V45.7207C808.834 31.7892 797.496 20.4955 783.509 20.4955Z" fill="#FFCC66"/>
<path d="M785.092 22.0721H47.4854C33.4985 22.0721 22.1598 33.3658 22.1598 47.2973V148.198C22.1598 162.13 33.4985 173.423 47.4854 173.423H785.092C799.079 173.423 810.417 162.13 810.417 148.198V47.2973C810.417 33.3658 799.079 22.0721 785.092 22.0721Z" fill="#FFCC66"/>
<path d="M786.674 23.6486H49.0682C35.0813 23.6486 23.7427 34.9424 23.7427 48.8739V149.775C23.7427 163.706 35.0813 175 49.0682 175H786.674C800.661 175 812 163.706 812 149.775V48.8739C812 34.9424 800.661 23.6486 786.674 23.6486Z" fill="#FFCC66"/>
<path d="M769.263 6.30631H31.6569C17.67 6.30631 6.33138 17.6 6.33138 31.5315V132.432C6.33138 146.364 17.67 157.658 31.6569 157.658H769.263C783.25 157.658 794.589 146.364 794.589 132.432V31.5315C794.589 17.6 783.25 6.30631 769.263 6.30631Z" fill="#404040"/>
<path d="M762.932 0H25.3255C11.3386 0 0 11.2937 0 25.2252V126.126C0 140.058 11.3386 151.351 25.3255 151.351H766.098C780.084 151.351 788.257 143.211 788.257 129.279V25.2252C788.257 11.2937 776.919 0 762.932 0Z" fill="white"/>
<path d="M97.4971 112.53C98.6653 114.34 98.0163 116.667 95.5502 116.667H80.2346C77.1195 116.667 75.562 115.503 73.7449 112.788L59.7272 91.9743C58.5591 90.423 58.2995 89.0009 58.2995 85.3811V75.0387C58.2995 72.7117 59.0783 71.2896 62.0635 71.2896H64.6594C71.0193 71.2896 76.9898 66.8941 76.9898 60.818C76.9898 54.0955 71.798 49.8293 65.0488 49.8293H47.7862V112.918C47.7862 115.891 46.3585 116.667 44.0222 116.667H31.1727C28.8364 116.667 27.5385 115.891 27.5385 112.918V35.4793C27.5385 33.1522 28.1874 31.7302 31.1727 31.7302H63.8806C78.0281 31.7302 84.2582 34.5743 89.7095 40.004C94.5119 44.6581 97.2375 52.027 97.2375 60.3009C97.2375 73.8752 87.2434 83.3126 79.1963 86.0275L97.4971 112.53Z" fill="#404040"/>
<path d="M181.086 89.3887C181.086 109.815 161.617 118.606 146.172 118.606C130.726 118.606 111.517 109.815 111.517 89.3887V58.8788C111.517 38.4527 130.726 29.6617 146.172 29.6617C161.617 29.6617 181.086 38.4527 181.086 58.8788V89.3887ZM160.709 60.6887C160.709 52.4149 154.738 47.6315 146.172 47.6315C137.735 47.6315 131.765 52.4149 131.765 60.6887V87.5788C131.765 95.8527 137.735 100.636 146.172 100.636C154.738 100.636 160.709 95.8527 160.709 87.5788V60.6887Z" fill="#404040"/>
<path d="M261.497 31.6009C263.833 31.6009 265.261 32.3766 265.261 35.35V90.6815C265.261 110.978 246.311 118.606 230.866 118.606C215.42 118.606 196.6 110.978 196.6 90.6815V35.35C196.6 32.3766 198.028 31.6009 200.364 31.6009H213.214C215.55 31.6009 216.978 32.3766 216.978 35.35V87.8374C216.978 95.982 222.3 100.636 230.866 100.636C239.432 100.636 244.884 95.982 244.884 87.8374V35.35C244.884 32.3766 246.311 31.6009 248.648 31.6009H261.497Z" fill="#404040"/>
<path d="M341.207 31.6009C344.193 31.6009 344.972 33.023 344.972 35.35V46.0802C344.972 48.4072 344.193 49.8293 341.207 49.8293H321.349V112.918C321.349 115.891 319.921 116.667 317.585 116.667H304.736C302.399 116.667 300.972 115.891 300.972 112.918V49.8293H280.983C277.998 49.8293 277.219 48.4072 277.219 46.0802V35.35C277.219 33.023 277.998 31.6009 280.983 31.6009H341.207Z" fill="#404040"/>
<path d="M419.891 98.5676C422.876 98.5676 423.655 99.9896 423.655 102.317V112.918C423.655 115.245 422.876 116.667 419.891 116.667H361.743C358.758 116.667 357.979 115.245 357.979 112.918V35.35C357.979 33.023 358.758 31.6009 361.743 31.6009H417.684C420.669 31.6009 421.448 33.023 421.448 35.35V46.0802C421.448 48.4072 420.669 49.8293 417.684 49.8293H378.487V63.9207H413.271C416.256 63.9207 417.035 65.3428 417.035 67.6698V77.7536C417.035 80.0806 416.256 81.5027 413.271 81.5027H378.487V98.5676H419.891Z" fill="#404040"/>
<path d="M541.241 31.6009C543.578 31.6009 543.967 33.7986 543.448 35.35L519.566 113.952C519.566 113.952 518.917 116.667 516.061 116.667H505.159C501.784 116.667 501.005 113.693 501.005 113.693L488.026 72.4532L475.047 113.693C475.047 113.693 474.268 116.667 470.893 116.667H459.472C456.616 116.667 455.967 113.952 455.967 113.952L431.955 35.35C431.566 33.7986 431.955 31.6009 434.292 31.6009H448.569C452.463 31.6009 453.242 34.1865 453.761 35.7378L466.61 79.6928L479.07 35.7378C479.59 33.9279 480.498 31.6009 483.483 31.6009H492.569C495.424 31.6009 496.333 33.9279 496.852 35.7378L509.442 79.6928L522.292 35.7378C522.681 34.1865 523.59 31.6009 527.483 31.6009H541.241Z" fill="#404040"/>
<path d="M593.086 98.9554C596.071 98.9554 596.85 100.377 596.85 102.704V112.918C596.85 115.245 596.071 116.667 593.086 116.667H556.354C553.369 116.667 552.59 115.245 552.59 112.918V102.704C552.59 100.377 553.369 98.9554 556.354 98.9554H564.531V49.5707H556.614C553.629 49.5707 552.85 48.1486 552.85 45.8216V35.35C552.85 33.023 553.629 31.6009 556.614 31.6009H592.696C595.682 31.6009 596.46 33.023 596.46 35.35V45.8216C596.46 48.1486 595.682 49.5707 592.696 49.5707H584.909V98.9554H593.086Z" fill="#404040"/>
<path d="M653.873 67.282C663.218 70.1261 676.976 73.8752 676.976 91.4572C676.976 109.815 662.439 118.606 642.451 118.606C626.227 118.606 607.536 109.298 607.536 91.1986C607.536 88.2252 608.315 87.5788 611.3 87.5788H623.89C626.876 87.5788 628.303 87.9667 628.563 91.1986C628.693 92.8793 629.342 94.5599 631.029 96.4991C633.625 99.6018 638.946 100.765 643.749 100.765C650.758 100.765 656.469 99.214 656.469 91.9743C656.469 84.7347 644.917 84.6054 633.884 81.1149C620.775 76.9779 608.705 71.8068 608.705 55.3883C608.705 38.582 624.02 30.3081 640.244 29.6617C656.728 29.6617 674.769 37.1599 674.769 54.2248C674.769 57.3275 673.991 57.8446 671.005 57.8446H658.286C655.82 57.8446 655.43 56.0347 654.781 54.354C654.262 53.0613 653.613 52.027 652.056 50.4757C649.589 48.1486 644.917 46.9851 641.023 46.9851C636.74 46.9851 629.601 48.6658 629.601 54.4833C629.601 62.3694 648.681 65.2135 653.873 67.282Z" fill="#404040"/>
<path d="M754.134 98.5676C757.119 98.5676 757.898 99.9896 757.898 102.317V112.918C757.898 115.245 757.119 116.667 754.134 116.667H695.987C693.001 116.667 692.223 115.245 692.223 112.918V35.35C692.223 33.023 693.001 31.6009 695.987 31.6009H751.927C754.913 31.6009 755.692 33.023 755.692 35.35V46.0802C755.692 48.4072 754.913 49.8293 751.927 49.8293H712.73V63.9207H747.515C750.5 63.9207 751.279 65.3428 751.279 67.6698V77.7536C751.279 80.0806 750.5 81.5027 747.515 81.5027H712.73V98.5676H754.134Z" fill="#404040"/>
</svg>
