<svg width="630" height="617" viewBox="0 0 630 617" fill="none" xmlns="http://www.w3.org/2000/svg">
<path d="M23.1193 317.069C23.1193 151.422 158.974 17.1389 326.56 17.1389C494.145 17.1389 630 151.422 630 317.069C630 482.717 494.145 617 326.56 617C158.974 617 23.1193 482.717 23.1193 317.069Z" fill="#404040"/>
<path d="M0 302.787C0 135.562 137.149 0 306.33 0C475.512 0 612.661 135.562 612.661 302.787C612.661 470.012 475.512 605.574 306.33 605.574C137.149 605.574 0 470.012 0 302.787Z" fill="#FFCC66"/>
<path d="M412.792 411.059C416.121 416.178 414.271 422.759 407.243 422.759H363.594C354.716 422.759 350.277 419.469 345.098 411.79L305.148 352.924C301.819 348.536 301.079 344.515 301.079 334.277V305.027C301.079 298.445 303.299 294.423 311.807 294.423H319.205C337.33 294.423 354.346 281.992 354.346 264.807C354.346 245.795 339.55 233.729 320.315 233.729H271.117V412.156C271.117 420.565 267.048 422.759 260.389 422.759H223.769C217.11 422.759 213.411 420.565 213.411 412.156V193.144C213.411 186.563 215.261 182.541 223.769 182.541H316.985C357.305 182.541 375.061 190.584 390.597 205.941C404.284 219.104 412.052 239.944 412.052 263.345C412.052 301.736 383.569 328.427 360.635 336.105L412.792 411.059Z" fill="#404040"/>
</svg>
