<svg width="302" height="65" viewBox="0 0 302 65" fill="none" xmlns="http://www.w3.org/2000/svg">
<path d="M284.339 0.585586H10.0078C4.80577 0.585586 0.588694 4.7804 0.588694 9.95496V47.4324C0.588694 52.607 4.80577 56.8018 10.0078 56.8018H284.339C289.541 56.8018 293.758 52.607 293.758 47.4324V9.95496C293.758 4.7804 289.541 0.585586 284.339 0.585586Z" fill="#FFCC66"/>
<path d="M284.928 1.17117H10.5965C5.39446 1.17117 1.17739 5.36598 1.17739 10.5405V48.018C1.17739 53.1926 5.39446 57.3874 10.5965 57.3874H284.928C290.13 57.3874 294.347 53.1926 294.347 48.018V10.5405C294.347 5.36598 290.13 1.17117 284.928 1.17117Z" fill="#FFCC66"/>
<path d="M285.517 1.75676H11.1852C5.98316 1.75676 1.76608 5.95157 1.76608 11.1261V48.6036C1.76608 53.7782 5.98316 57.973 11.1852 57.973H285.517C290.719 57.973 294.936 53.7782 294.936 48.6036V11.1261C294.936 5.95157 290.719 1.75676 285.517 1.75676Z" fill="#FFCC66"/>
<path d="M286.105 2.34234H11.7739C6.57185 2.34234 2.35478 6.53715 2.35478 11.7117V49.1892C2.35478 54.3638 6.57185 58.5586 11.7739 58.5586H286.105C291.307 58.5586 295.524 54.3638 295.524 49.1892V11.7117C295.524 6.53715 291.307 2.34234 286.105 2.34234Z" fill="#FFCC66"/>
<path d="M286.694 2.92793H12.3626C7.16055 2.92793 2.94347 7.12274 2.94347 12.2973V49.7748C2.94347 54.9493 7.16055 59.1441 12.3626 59.1441H286.694C291.896 59.1441 296.113 54.9493 296.113 49.7748V12.2973C296.113 7.12274 291.896 2.92793 286.694 2.92793Z" fill="#FFCC66"/>
<path d="M287.283 3.51351H12.9513C7.74924 3.51351 3.53216 7.70832 3.53216 12.8829V50.3604C3.53216 55.5349 7.74924 59.7297 12.9513 59.7297H287.283C292.485 59.7297 296.702 55.5349 296.702 50.3604V12.8829C296.702 7.70832 292.485 3.51351 287.283 3.51351Z" fill="#FFCC66"/>
<path d="M287.871 4.0991H13.54C8.33793 4.0991 4.12086 8.29391 4.12086 13.4685V50.9459C4.12086 56.1205 8.33793 60.3153 13.54 60.3153H287.871C293.073 60.3153 297.29 56.1205 297.29 50.9459V13.4685C297.29 8.29391 293.073 4.0991 287.871 4.0991Z" fill="#FFCC66"/>
<path d="M288.46 4.68468H14.1287C8.92663 4.68468 4.70955 8.87949 4.70955 14.0541V51.5315C4.70955 56.7061 8.92663 60.9009 14.1287 60.9009H288.46C293.662 60.9009 297.879 56.7061 297.879 51.5315V14.0541C297.879 8.87949 293.662 4.68468 288.46 4.68468Z" fill="#FFCC66"/>
<path d="M289.049 5.27027H14.7173C9.51532 5.27027 5.29825 9.46508 5.29825 14.6396V52.1171C5.29825 57.2917 9.51532 61.4865 14.7173 61.4865H289.049C294.251 61.4865 298.468 57.2917 298.468 52.1171V14.6396C298.468 9.46508 294.251 5.27027 289.049 5.27027Z" fill="#FFCC66"/>
<path d="M289.637 5.85586H15.306C10.104 5.85586 5.88694 10.0507 5.88694 15.2252V52.7027C5.88694 57.8773 10.104 62.0721 15.306 62.0721H289.637C294.839 62.0721 299.057 57.8773 299.057 52.7027V15.2252C299.057 10.0507 294.839 5.85586 289.637 5.85586Z" fill="#FFCC66"/>
<path d="M290.226 6.44144H15.8947C10.6927 6.44144 6.47563 10.6363 6.47563 15.8108V53.2883C6.47563 58.4628 10.6927 62.6577 15.8947 62.6577H290.226C295.428 62.6577 299.645 58.4628 299.645 53.2883V15.8108C299.645 10.6363 295.428 6.44144 290.226 6.44144Z" fill="#FFCC66"/>
<path d="M290.815 7.02703H16.4834C11.2814 7.02703 7.06433 11.2218 7.06433 16.3964V53.8739C7.06433 59.0484 11.2814 63.2432 16.4834 63.2432H290.815C296.017 63.2432 300.234 59.0484 300.234 53.8739V16.3964C300.234 11.2218 296.017 7.02703 290.815 7.02703Z" fill="#FFCC66"/>
<path d="M291.404 7.61261H17.0721C11.8701 7.61261 7.65302 11.8074 7.65302 16.982V54.4595C7.65302 59.634 11.8701 63.8288 17.0721 63.8288H291.404C296.606 63.8288 300.823 59.634 300.823 54.4595V16.982C300.823 11.8074 296.606 7.61261 291.404 7.61261Z" fill="#FFCC66"/>
<path d="M291.992 8.1982H17.6608C12.4588 8.1982 8.24172 12.393 8.24172 17.5676V55.045C8.24172 60.2196 12.4588 64.4144 17.6608 64.4144H291.992C297.194 64.4144 301.411 60.2196 301.411 55.045V17.5676C301.411 12.393 297.194 8.1982 291.992 8.1982Z" fill="#FFCC66"/>
<path d="M292.581 8.78378H18.2495C13.0475 8.78378 8.83041 12.9786 8.83041 18.1532V55.6306C8.83041 60.8052 13.0475 65 18.2495 65H292.581C297.783 65 302 60.8052 302 55.6306V18.1532C302 12.9786 297.783 8.78378 292.581 8.78378Z" fill="#FFCC66"/>
<path d="M286.105 2.34234H11.7739C6.57185 2.34234 2.35478 6.53715 2.35478 11.7117V49.1892C2.35478 54.3638 6.57185 58.5586 11.7739 58.5586H286.105C291.307 58.5586 295.524 54.3638 295.524 49.1892V11.7117C295.524 6.53715 291.307 2.34234 286.105 2.34234Z" fill="white"/>
<path d="M283.75 0H9.4191C4.21708 0 0 4.19481 0 9.36937V46.8468C0 52.0214 4.21708 56.2162 9.4191 56.2162H284.928C290.13 56.2162 293.17 53.1926 293.17 48.018V9.36937C293.17 4.19481 288.953 0 283.75 0Z" fill="#404040"/>
<path d="M37.6175 42.291L30.8593 32.5117C33.8381 31.5045 37.5234 28.0261 37.5234 23.0252L37.6175 42.291Z" fill="#343C3E"/>
<path d="M36.2612 41.7968C36.6957 42.469 36.4543 43.3333 35.5371 43.3333H29.8409C28.6824 43.3333 28.1031 42.9012 27.4273 41.8928L22.2138 34.1619C21.7794 33.5857 21.6828 33.0575 21.6828 31.713V27.8715C21.6828 27.0072 21.9725 26.479 23.0827 26.479H24.0482C26.4136 26.479 28.6341 24.8464 28.6341 22.5896C28.6341 20.0926 26.7032 18.508 24.193 18.508H17.7727V41.9408C17.7727 43.0452 17.2417 43.3333 16.3728 43.3333H11.5938C10.7249 43.3333 10.2421 43.0452 10.2421 41.9408V13.178C10.2421 12.3137 10.4835 11.7855 11.5938 11.7855H23.7586C29.0203 11.7855 31.3374 12.8419 33.3649 14.8586C35.151 16.5873 36.1647 19.3243 36.1647 22.3975C36.1647 27.4394 32.4477 30.9447 29.4548 31.9531L36.2612 41.7968Z" fill="white"/>
<path d="M67.3497 33.2015C67.3497 40.7884 60.1088 44.0536 54.3643 44.0536C48.6199 44.0536 41.4755 40.7884 41.4755 33.2015V21.8693C41.4755 14.2824 48.6199 11.0172 54.3643 11.0172C60.1088 11.0172 67.3497 14.2824 67.3497 21.8693V33.2015ZM59.7709 22.5415C59.7709 19.4684 57.5503 17.6917 54.3643 17.6917C51.2266 17.6917 49.006 19.4684 49.006 22.5415V32.5293C49.006 35.6024 51.2266 37.3791 54.3643 37.3791C57.5503 37.3791 59.7709 35.6024 59.7709 32.5293V22.5415Z" fill="white"/>
<path d="M97.2563 11.7375C98.1252 11.7375 98.6562 12.0256 98.6562 13.13V33.6817C98.6562 41.2205 91.6084 44.0536 85.8639 44.0536C80.1194 44.0536 73.1199 41.2205 73.1199 33.6817V13.13C73.1199 12.0256 73.6509 11.7375 74.5198 11.7375H79.2988C80.1677 11.7375 80.6987 12.0256 80.6987 13.13V32.6253C80.6987 35.6505 82.6779 37.3791 85.8639 37.3791C89.0499 37.3791 91.0774 35.6505 91.0774 32.6253V13.13C91.0774 12.0256 91.6084 11.7375 92.4773 11.7375H97.2563Z" fill="white"/>
<path d="M126.902 11.7375C128.013 11.7375 128.302 12.2657 128.302 13.13V17.1155C128.302 17.9798 128.013 18.508 126.902 18.508H119.517V41.9408C119.517 43.0452 118.986 43.3333 118.117 43.3333H113.338C112.469 43.3333 111.938 43.0452 111.938 41.9408V18.508H104.504C103.393 18.508 103.104 17.9798 103.104 17.1155V13.13C103.104 12.2657 103.393 11.7375 104.504 11.7375H126.902Z" fill="white"/>
<path d="M156.166 36.6108C157.277 36.6108 157.566 37.139 157.566 38.0033V41.9408C157.566 42.8051 157.277 43.3333 156.166 43.3333H134.54C133.43 43.3333 133.14 42.8051 133.14 41.9408V13.13C133.14 12.2657 133.43 11.7375 134.54 11.7375H155.346C156.456 11.7375 156.746 12.2657 156.746 13.13V17.1155C156.746 17.9798 156.456 18.508 155.346 18.508H140.767V23.742H153.704C154.815 23.742 155.104 24.2702 155.104 25.1345V28.8799C155.104 29.7442 154.815 30.2724 153.704 30.2724H140.767V36.6108H156.166Z" fill="white"/>
<path d="M201.299 11.7375C202.168 11.7375 202.313 12.5538 202.12 13.13L193.238 42.325C193.238 42.325 192.996 43.3333 191.934 43.3333H187.879C186.624 43.3333 186.335 42.2289 186.335 42.2289L181.507 26.9112L176.68 42.2289C176.68 42.2289 176.39 43.3333 175.135 43.3333H170.887C169.825 43.3333 169.584 42.325 169.584 42.325L160.653 13.13C160.509 12.5538 160.653 11.7375 161.522 11.7375H166.832C168.28 11.7375 168.57 12.6978 168.763 13.2741L173.542 29.6002L178.176 13.2741C178.37 12.6018 178.707 11.7375 179.818 11.7375H183.197C184.259 11.7375 184.597 12.6018 184.79 13.2741L189.472 29.6002L194.251 13.2741C194.396 12.6978 194.734 11.7375 196.182 11.7375H201.299Z" fill="white"/>
<path d="M220.581 36.7549C221.691 36.7549 221.981 37.2831 221.981 38.1474V41.9408C221.981 42.8051 221.691 43.3333 220.581 43.3333H206.92C205.81 43.3333 205.52 42.8051 205.52 41.9408V38.1474C205.52 37.2831 205.81 36.7549 206.92 36.7549H209.961V18.412H207.016C205.906 18.412 205.617 17.8838 205.617 17.0195V13.13C205.617 12.2657 205.906 11.7375 207.016 11.7375H220.436C221.547 11.7375 221.836 12.2657 221.836 13.13V17.0195C221.836 17.8838 221.547 18.412 220.436 18.412H217.54V36.7549H220.581Z" fill="white"/>
<path d="M243.189 24.9904C246.665 26.0468 251.782 27.4394 251.782 33.9698C251.782 40.7884 246.375 44.0536 238.941 44.0536C232.907 44.0536 225.956 40.5963 225.956 33.8738C225.956 32.7694 226.245 32.5293 227.356 32.5293H232.038C233.148 32.5293 233.679 32.6733 233.776 33.8738C233.824 34.498 234.066 35.1223 234.693 35.8425C235.659 36.995 237.638 37.4271 239.424 37.4271C242.031 37.4271 244.155 36.8509 244.155 34.1619C244.155 31.4729 239.858 31.4249 235.755 30.1284C230.879 28.5918 226.39 26.6711 226.39 20.5728C226.39 14.3304 232.086 11.2573 238.12 11.0172C244.251 11.0172 250.961 13.8023 250.961 20.1406C250.961 21.2931 250.671 21.4851 249.561 21.4851H244.83C243.913 21.4851 243.768 20.8129 243.527 20.1886C243.334 19.7085 243.093 19.3243 242.513 18.7481C241.596 17.8838 239.858 17.4516 238.41 17.4516C236.817 17.4516 234.162 18.0759 234.162 20.2367C234.162 23.1658 241.258 24.2222 243.189 24.9904Z" fill="white"/>
<path d="M280.478 36.6108C281.589 36.6108 281.878 37.139 281.878 38.0033V41.9408C281.878 42.8051 281.589 43.3333 280.478 43.3333H258.852C257.742 43.3333 257.452 42.8051 257.452 41.9408V13.13C257.452 12.2657 257.742 11.7375 258.852 11.7375H279.658C280.768 11.7375 281.058 12.2657 281.058 13.13V17.1155C281.058 17.9798 280.768 18.508 279.658 18.508H265.079V23.742H278.016C279.127 23.742 279.416 24.2702 279.416 25.1345V28.8799C279.416 29.7442 279.127 30.2724 278.016 30.2724H265.079V36.6108H280.478Z" fill="white"/>
</svg>
