<svg width="33" height="33" viewBox="0 0 33 33" fill="none" xmlns="http://www.w3.org/2000/svg">
<g clip-path="url(#clip0_833_97)">
<path d="M7.67463 0.5H25.6586C29.5291 0.5 32.6666 3.6375 32.6666 7.508V25.492C32.6666 29.3625 29.5291 32.5 25.6586 32.5H7.67463C3.80413 32.5 0.666626 29.3625 0.666626 25.492V7.508C0.666626 3.6375 3.80413 0.5 7.67463 0.5Z" fill="url(#paint0_linear_833_97)"/>
<path d="M10.9219 23.7263L10.9249 23.7273L9.83075 25.6223C9.43137 26.314 8.54687 26.551 7.85512 26.1517C7.16337 25.7523 6.92637 24.8678 7.32575 24.176L8.13175 22.78L8.20912 22.646C8.34725 22.4475 8.68812 22.1048 9.37 22.1693C9.37 22.1693 10.9746 22.3434 11.0907 23.1774C11.0907 23.1774 11.1065 23.4518 10.9219 23.7263ZM26.4397 18.8863H23.028C22.7956 18.8707 22.6942 18.7877 22.6542 18.7394L22.6517 18.735L18.9996 12.4093L18.9949 12.4124L18.7759 12.0984C18.4169 11.5494 17.8469 12.9534 17.8469 12.9534C17.1662 14.5179 17.9435 16.2965 18.2144 16.8342L23.2871 25.6204C23.6864 26.312 24.5709 26.5492 25.2627 26.1497C25.9544 25.7503 26.1915 24.8658 25.792 24.174L24.5236 21.977C24.499 21.9238 24.4562 21.7793 24.7164 21.7787H26.4397C27.2385 21.7787 27.886 21.1312 27.886 20.3324C27.886 19.5337 27.2385 18.8863 26.4397 18.8863ZM19.813 20.8522C19.813 20.8522 19.9951 21.7785 19.2905 21.7785H6.67812C5.87937 21.7785 5.23187 21.131 5.23187 20.3323C5.23187 19.5335 5.87937 18.886 6.67812 18.886H9.92062C10.4441 18.8558 10.5681 18.5535 10.5681 18.5535L10.5711 18.555L14.8036 11.224L14.8024 11.2238C14.8795 11.0822 14.8152 10.9483 14.8041 10.9272L13.4062 8.50603C13.0069 7.8144 13.2439 6.92978 13.9356 6.53053C14.6274 6.13128 15.5119 6.36803 15.9112 7.05978L16.5595 8.18265L17.2066 7.06178C17.606 6.37015 18.4905 6.13303 19.1822 6.53253C19.874 6.93203 20.111 7.81628 19.7116 8.50803L13.8219 18.7093C13.7961 18.7714 13.7882 18.8689 13.9799 18.886H17.5004L17.5011 18.9204C17.5011 18.9204 19.5359 18.952 19.813 20.8522Z" fill="white"/>
</g>
<defs>
<linearGradient id="paint0_linear_833_97" x1="1600.67" y1="0.5" x2="1600.67" y2="3200.5" gradientUnits="userSpaceOnUse">
<stop stop-color="#17C9FB"/>
<stop offset="1" stop-color="#1A74E8"/>
</linearGradient>
<clipPath id="clip0_833_97">
<rect width="32" height="32" fill="white" transform="translate(0.666626 0.5)"/>
</clipPath>
</defs>
</svg>
