<svg width="29" height="31" viewBox="0 0 29 31" fill="none" xmlns="http://www.w3.org/2000/svg">
<g clip-path="url(#clip0_833_92)">
<path d="M13.4094 14.7788L0.449249 28.3777C0.594791 28.8943 0.856333 29.3707 1.21388 29.7705C1.57143 30.1703 2.01553 30.4829 2.51221 30.6845C3.0089 30.8861 3.54503 30.9713 4.07962 30.9335C4.61421 30.8958 5.13311 30.7361 5.59666 30.4668L20.1793 22.1489L13.4094 14.7788Z" fill="#EA4335"/>
<path d="M26.5144 12.4673L20.2084 8.84979L13.1102 15.0881L20.2373 22.1294L26.4953 18.5507C27.0496 18.26 27.514 17.8228 27.838 17.2866C28.162 16.7504 28.3333 16.1357 28.3333 15.5089C28.3333 14.8822 28.162 14.2674 27.838 13.7312C27.514 13.195 27.0496 12.7579 26.4953 12.4672L26.5144 12.4673Z" fill="#FBBC04"/>
<path d="M0.449254 2.57275C0.370962 2.86281 0.331967 3.16209 0.333316 3.46255V27.4878C0.334089 27.7881 0.373049 28.0872 0.449254 28.3777L13.8537 15.127L0.449254 2.57275Z" fill="#4285F4"/>
<path d="M13.506 15.4753L20.2083 8.84991L5.645 0.493268C5.09706 0.171898 4.47387 0.00170069 3.83889 6.71816e-06C2.26312 -0.00306042 0.87778 1.04437 0.449249 2.56315L13.506 15.4753Z" fill="#34A853"/>
</g>
<defs>
<clipPath id="clip0_833_92">
<rect width="28" height="31" fill="white" transform="translate(0.333313)"/>
</clipPath>
</defs>
</svg>
