<svg width="32" height="33" viewBox="0 0 32 33" fill="none" xmlns="http://www.w3.org/2000/svg">
<path d="M19.9746 32.0591C26.4693 30.4094 31.3837 24.8018 32 17.9563H24.7255C24.4538 23.1346 22.7451 27.9524 19.9746 32.0591ZM32 15.0364C31.3837 8.1894 26.4649 2.58039 19.9688 0.930677C22.7407 5.03889 24.4524 9.85663 24.7255 15.0364H32ZM12.0341 0.930677C5.53512 2.58039 0.619232 8.1894 0 15.0364H7.27598C7.54909 9.85663 9.26074 5.03889 12.0341 0.930677ZM0.00146035 17.9563C0.304781 21.2602 1.62344 24.3893 3.77648 26.9143C5.92953 29.4393 8.81146 31.2365 12.0268 32.0591C9.25636 27.9524 7.54762 23.1346 7.27598 17.9563H0.00146035ZM16.0007 32.5C12.6315 28.4341 10.5211 23.4178 10.2027 17.9563H21.8002C21.4789 23.4164 19.37 28.4341 16.0022 32.5M16.0007 0.5C19.37 4.56442 21.4774 9.57925 21.7987 15.0364H10.2027C10.524 9.57925 12.6329 4.56442 16.0007 0.5Z" fill="white"/>
</svg>
